<?xml version="1.0" encoding="utf-8"?>
<!-- Generator: Adobe Illustrator 18.0.0, SVG Export Plug-In . SVG Version: 6.00 Build 0)  -->
<!DOCTYPE svg PUBLIC "-//W3C//DTD SVG 1.1//EN" "http://www.w3.org/Graphics/SVG/1.1/DTD/svg11.dtd">
<svg version="1.1" id="Layer_1" xmlns="http://www.w3.org/2000/svg" xmlns:xlink="http://www.w3.org/1999/xlink" x="0px" y="0px"
	 viewBox="0 0 2000 2000" enable-background="new 0 0 2000 2000" xml:space="preserve">
<rect fill="#FFFFFF" width="2000" height="2000"/>
<g>
	<path fill="#07085B" d="M961.6,747.6l14.8,92.7l31.2-123.6c0,0-43.8-21.2-45.7-13.5C960,710.9,961.6,747.6,961.6,747.6z"/>
	<polygon fill="#FFC0BB" points="1210,947.1 1223.5,1107.4 1082.1,1100.6 1098.4,958.7 	"/>
	<path fill="#F99893" d="M1090.7,1026.2l7.8-67.5l111.6-11.6l4.7,55.5C1192.5,1024.7,1152.6,1047.6,1090.7,1026.2z"/>
	<g>
		
			<ellipse transform="matrix(0.9003 -0.4353 0.4353 0.9003 -273.0669 510.8299)" fill="#F99893" cx="978.5" cy="851.4" rx="28.3" ry="35.4"/>
		<path fill="#FFC0BB" d="M1002.9,920.4c-10.1-22.7-16-47.1-19.5-68.4c-0.7-4.6-1.7-9.1-2.8-13.6c-4.4-18.2-5.6-37.8-2.5-58.2
			c9.8-65.6,62.6-117.9,128.3-126.9c88.5-12.2,166.4,53.3,171.9,140.1c9.1-5.8,19.6-7.7,29.2-4.1c18.4,6.9,26.4,31.1,17.8,54.1
			c-8.6,23-30.4,36.1-48.8,29.2c-2.6-1-4.9-2.3-7-3.8c-2.8,74.3-59.7,135.1-132.4,138.5c-35.5,1.7-68.6-10.7-94.2-32.4
			C1026.4,962.7,1010.9,939.2,1002.9,920.4z"/>
		<path fill="#F99893" d="M1093.6,803.6c-0.3,8.7-0.4,17.1-0.8,25.4c-0.5,7.7-1.4,18.7-6.1,24.5c-0.7,1-4.5,5-4.5,11.2
			c-0.2,5.7,2.8,10.9,6.6,14c7.7,6.5,17.7,7.1,26,5.1c-8.5-1.5-16.5-4.4-21.3-9.9c-2.2-2.7-3.6-5.8-3.1-8.7c0.4-3.3,2.2-5,2.9-6
			c2.3-3.1,5.2-6.3,6.4-16.9c0.4-4.5,0.4-9-0.1-13.3C1098.7,820.1,1096.8,811.6,1093.6,803.6z"/>
		<circle fill="#333333" cx="1156.9" cy="814.4" r="13.2"/>
		<circle fill="#333333" cx="1044.1" cy="827.1" r="13.2"/>
		<path fill="#F99893" d="M1165.8,904.3c-13.4,11.7-30.9,20.8-48.2,22.9c-18.8,2.4-35.3-3.4-51.3-13.2
			c14.9,12.5,32.1,18.8,51.7,16.6C1137.1,928.2,1155,917.2,1165.8,904.3z"/>
		<path fill="#07085B" d="M1127.1,785.2c18.6-5.7,29.1-6.1,37.6-5c18.5,2.5,29,10.7,35.4,13.5c-7.8-14.4-19.8-22-34.3-23.8
			C1150.2,768,1134.9,775.1,1127.1,785.2z"/>
		<path fill="#07085B" d="M1069,791.8c-9.5-8.4-25.9-12.4-41-7.5c-13.8,4.6-24.1,14.4-29,30c5.8-4.1,14.4-14.1,32.1-20.1
			C1039.3,791.5,1049.6,789.7,1069,791.8z"/>
	</g>
	<path fill="#02CCC0" d="M1066.3,1043.5c0,0-133.1,16.9-166.9,44.4c-33.8,27.5-196.5,430.9-196.5,430.9l135.2,158.4l287.3,2.1
		c0,0,215.5,116.2,350.7,6.3c135.2-109.8,65.5-492.2-12.7-574.6c-78.2-82.4-217.6-80.3-217.6-80.3S1119.1,1119.5,1066.3,1043.5z"/>
	<path fill="#FFFFFF" d="M1324,1244.1c-4.8,22-7.7,44.3-9.7,66.7c-1.1,11.2-1.6,22.4-2.3,33.7c-0.3,11.3-0.6,22.5-0.4,33.8
		c0.4,22.5,1.7,45.1,5.5,67.4c3.8,22.2,9.3,44.5,19.6,64.6c-6.9-21.4-10.4-43.4-12.9-65.5c-2.5-22.1-3.3-44.4-3.6-66.6
		c-0.5-22.3,0.1-44.6,0.8-66.9C1321.8,1288.9,1322.8,1266.6,1324,1244.1z"/>
	<path fill="#FFFFFF" d="M925.8,1229.4c-6.1,32.7-12.5,65.3-19.1,97.9c-6.7,32.5-13.6,65-21.5,97.2c-7.8,32.2-16.4,64.2-26.9,95.6
		c-5.2,15.7-11.1,31.2-18,46.2c-6.8,15.1-14.8,29.6-25.5,42.4c12.2-11.4,21.2-25.9,29.3-40.5c7.9-14.8,14.7-30.1,20.5-45.8
		c6-15.6,11.1-31.5,16-47.5c4.7-16,9-32.1,13-48.3c3.8-16.2,7.5-32.5,10.8-48.8c3.2-16.4,6.3-32.7,8.9-49.2
		C918.8,1295.6,923.1,1262.5,925.8,1229.4z"/>
	<path fill="#FFC0BB" d="M858.9,1585.9c0.8-6.7,51.6-14.2,70.3-15.1c14.1-0.7,107.9-3.9,139.8-5.3l-2.3,8.2l0.5,36.2l5.2,24
		c-28,1.8-96.3,4.4-110.6,7.3c-19,3.8-52,18.1-52,18.1s-13.7-3.1,3.7-10.6c14-6,23.8-15.4,28-20c2.4-2.7-0.2-7.4-1.9-7
		c-47.5,12.4-52.4,14.5-52.4,14.5s-55.8-0.3-0.3-12.9c33.3-7.5,45.2-11.9,48.1-15.6c1.3-1.6-1-7-3-7.1c-28.8-1.8-80.5,8.4-66.4,1.7
		c11.5-5.5,47.9-11.4,62.1-13.7c0.9-0.1,2.3-5.4-1.6-5.7C898.6,1580.5,858.2,1592.1,858.9,1585.9z"/>
	<path fill="#FFFFFF" d="M1321.6,1513.3c-11.6,2.8-23.5,4.8-35.2,7.3c-23.6,4.3-47.2,8-70.9,11.4c-23.7,3.1-47.5,6-71.3,8.3
		c-23.7,2.4-47.9,4.4-71.3,5.7l-3.2,0.2l-0.7,2.7c-2,8-3.3,15.7-4.3,23.7c-1,7.9-1.4,15.9-1.4,23.9c0.1,8,0.8,16,2.1,24
		c1.5,7.9,3.8,15.7,7,23.1l0.3,0.6l0.5,0.3l26.1,17.5c8.7,5.8,17.4,11.6,26.2,17.3c-8.2-6.6-16.4-13-24.7-19.4l-24.3-18.7
		c-2.5-7-4.3-14.3-5.3-21.7c-0.9-7.6-1.3-15.3-1.1-23c0.3-7.7,1-15.4,2.1-23c1-6.6,2.3-13.3,3.9-19.7c11.3-0.4,22.1-1.1,33.1-1.9
		c12-0.9,24-1.8,36-3.1c23.9-2.5,47.8-5.5,71.6-9.3c23.8-3.8,47.4-8.5,70.8-14c11.7-3,23.3-5.9,34.8-9.5
		c11.6-3.3,22.9-7.3,34.2-11.3C1344.8,1507.6,1333.3,1510.9,1321.6,1513.3z"/>
	<path fill="#07085B" d="M301.9,1317h452.8c13.9,0,26.4,8.4,31.7,21.2L925,1676.7h250.3c7,0,12.7,5.7,12.7,12.7l0,0
		c0,7-5.7,12.7-12.7,12.7H452.6c-13.3,0-25.5-7.8-30.9-20l-145.7-324.9C267.5,1338.3,281.3,1317,301.9,1317z"/>
	<path fill="#07085B" d="M958.7,659.9c0,0-44.4,1.4,2.2-36.1c46.6-37.5,171.6-81.5,251.7-39.2c0,0,16-34.1,39.2-25.9
		c23.2,8.1-15.1,31.6-15.1,31.6s29.6-1,38.6,13.6c6.7,10.7-11.4,11.2-21.3,10.7c16.8,2.9,81.4,43.6,49,173.8
		c-11.5-2.5-77.1-97.7-77.1-97.7s-150.1,83.4-135.2,17.1c0,0-155.5,97-133.4,16.9C957.2,724.6,897.1,729,958.7,659.9z"/>
	<path fill="#07085B" d="M1303.1,789.1c0,0-12.4-4.4-25.8,6.2c-13.4,10.6-11.9,47.9-11.9,47.9s-63.8,41.1-57.1-132.9
		c7.2-185.2,53.2,14.9,53.2,14.9L1303.1,789.1z"/>
	
		<ellipse transform="matrix(0.9785 -0.2063 0.2063 0.9785 -299.7041 146.9519)" fill="#FFFFFF" cx="554.7" cy="1510.3" rx="28.6" ry="39.1"/>
	<path fill="#FF5B7E" d="M403.1,1116.3c0,0-2.2,21.8-19.4,23.3c17.2,1.5,19.4,23.3,19.4,23.3s2.2-21.8,19.4-23.3
		C405.4,1138.1,403.1,1116.3,403.1,1116.3z"/>
	<path fill="#02CCC0" d="M871.8,948.8c0,0-3.5,34.7-30.9,37.1c27.4,2.4,30.9,37.1,30.9,37.1s3.5-34.7,30.9-37.1
		C875.3,983.5,871.8,948.8,871.8,948.8z"/>
	<path fill="#02CCC0" d="M332.8,609.7c0,0-3.5,34.7-30.9,37.1c27.4,2.4,30.9,37.1,30.9,37.1s3.5-34.7,30.9-37.1
		C336.3,644.4,332.8,609.7,332.8,609.7z"/>
	<path fill="#FEB546" d="M593.8,818.6c0,0-2.7,30.8-23.6,32.9c20.9,2.1,23.6,32.9,23.6,32.9s2.7-30.8,23.6-32.9
		C596.5,849.3,593.8,818.6,593.8,818.6z"/>
	<path fill="#FEB546" d="M713,496.6c0,0-2.7,30.8-23.6,32.9c20.9,2.1,23.6,32.9,23.6,32.9s2.7-30.8,23.6-32.9
		C715.6,527.3,713,496.6,713,496.6z"/>
	<ellipse fill="#E6F7FF" cx="1527.7" cy="446.4" rx="198.9" ry="179.3"/>
	<ellipse fill="#E6F7FF" cx="1379.3" cy="652.5" rx="26" ry="23.4"/>
</g>
</svg>
